<svg width="20" height="14" viewBox="0 0 20 14" fill="none" xmlns="http://www.w3.org/2000/svg">
<path d="M0.5 0.995C0.5 0.445 0.9237 0 1.44525 0H9.05475C9.30545 7.86455e-09 9.54587 0.10483 9.72314 0.291429C9.90041 0.478027 10 0.731109 10 0.995C10 1.25889 9.90041 1.51197 9.72314 1.69857C9.54587 1.88517 9.30545 1.99 9.05475 1.99H1.44525C1.19455 1.99 0.954126 1.88517 0.776857 1.69857C0.599589 1.51197 0.5 1.25889 0.5 0.995ZM0.5 7C0.5 6.45 0.9237 6.005 1.44525 6.005H18.5547C18.8054 6.005 19.0459 6.10983 19.2231 6.29643C19.4004 6.48303 19.5 6.73611 19.5 7C19.5 7.26389 19.4004 7.51697 19.2231 7.70357C19.0459 7.89017 18.8054 7.995 18.5547 7.995H1.44525C1.19455 7.995 0.954126 7.89017 0.776857 7.70357C0.599589 7.51697 0.5 7.26389 0.5 7ZM1.44525 12.01C1.19455 12.01 0.954126 12.1148 0.776857 12.3014C0.599589 12.488 0.5 12.7411 0.5 13.005C0.5 13.2689 0.599589 13.522 0.776857 13.7086C0.954126 13.8952 1.19455 14 1.44525 14H12.8547C13.1054 14 13.3459 13.8952 13.5231 13.7086C13.7004 13.522 13.8 13.2689 13.8 13.005C13.8 12.7411 13.7004 12.488 13.5231 12.3014C13.3459 12.1148 13.1054 12.01 12.8547 12.01H1.44525Z" fill="#2E2E2E"/>
</svg>
