<svg width="50" height="50" viewBox="0 0 50 50" fill="none" xmlns="http://www.w3.org/2000/svg">
<rect x="1" y="1" width="48" height="48" rx="24" fill="#E4E5E4"/>
<path fill-rule="evenodd" clip-rule="evenodd" d="M30.5429 31.9571C30.9334 32.3477 31.5666 32.3477 31.9571 31.9571C32.3476 31.5666 32.3476 30.9334 31.9571 30.5429L26.4142 25L31.9571 19.4571C32.3476 19.0666 32.3476 18.4334 31.9571 18.0429C31.5666 17.6524 30.9334 17.6524 30.5429 18.0429L25 23.5858L19.4571 18.0429C19.0666 17.6524 18.4334 17.6524 18.0429 18.0429C17.6524 18.4334 17.6524 19.0666 18.0429 19.4571L23.5858 25L18.0429 30.5429C17.6524 30.9334 17.6524 31.5666 18.0429 31.9571C18.4334 32.3477 19.0666 32.3477 19.4571 31.9571L25 26.4142L30.5429 31.9571Z" fill="#DE0922"/>
<rect x="1" y="1" width="48" height="48" rx="24" stroke="#D9D9D9" stroke-width="2"/>
</svg>
