<svg width="28" height="23" viewBox="0 0 28 23" fill="none" xmlns="http://www.w3.org/2000/svg">
<path d="M26.5463 0.000296805C26.3842 0.0263752 26.226 0.0715505 26.0749 0.13485L6.77093 7.43113C4.89427 8.13863 3.01322 8.84612 1.14097 9.54927C0.652386 9.69823 0.242677 10.0302 0 10.4738L0 10.795C0.237147 11.1512 0.604966 11.4031 1.02643 11.4981C3.08223 12.1289 5.13803 12.754 7.19383 13.3732C7.32817 13.4017 7.46847 13.3784 7.5859 13.3081C12.4082 10.3392 17.232 7.36603 22.0573 4.38848C22.2201 4.27355 22.4042 4.19099 22.5991 4.14542C22.7687 4.14419 22.9371 4.17209 23.0969 4.22789C23.0264 4.36244 22.9604 4.50133 22.8855 4.63155C22.8855 4.66193 22.8326 4.67929 22.8062 4.70534C18.9266 8.14007 15.0485 11.5748 11.1718 15.0095C11.0681 15.1038 11.0024 15.2317 10.9868 15.3698C10.8546 17.0496 10.7357 18.7336 10.6167 20.4221C10.5859 20.7997 10.5639 21.1817 10.5374 21.5723C10.7434 21.5787 10.9486 21.5434 11.1403 21.4688C11.3319 21.3941 11.5061 21.2817 11.652 21.1382C12.6696 20.1747 13.696 19.2111 14.7357 18.2519L14.9604 18.0565L15.2203 18.2388C17.2203 19.6799 19.2159 21.1296 21.2247 22.5793C21.4777 22.7524 21.7573 22.8843 22.0529 22.9699C22.3139 23.0671 22.603 23.0614 22.8598 22.9538C23.1167 22.8463 23.3215 22.6453 23.4317 22.3926C23.58 22.104 23.6896 21.7976 23.7577 21.4811C25.094 15.3524 26.4156 9.22084 27.7225 3.08635C27.8649 2.51661 27.9563 1.93566 27.9956 1.35017C28.0312 1.15814 28.0176 0.960381 27.956 0.774854C27.8943 0.589326 27.7866 0.421909 27.6426 0.287807C27.4986 0.153704 27.3229 0.0571647 27.1315 0.00695515C26.94 -0.0432544 26.7388 -0.0455431 26.5463 0.000296805Z" fill="#2E2E2E"/>
</svg>
