<svg width="33" height="19" viewBox="0 0 33 19" fill="none" xmlns="http://www.w3.org/2000/svg">
<path d="M31.7785 15.6699C30.6907 14.4753 29.5494 13.3305 28.4125 12.1677C27.3648 11.0862 27.3069 10.6201 28.1807 9.38032C28.8628 8.42104 29.5895 7.49797 30.285 6.54774C31.2596 5.33684 32.086 4.01041 32.7459 2.59752C33.2943 1.2853 32.9688 0.78756 31.5779 0.78756C29.8213 0.78756 28.0648 0.828284 26.3127 0.828284C26.0434 0.810261 25.776 0.884231 25.553 1.0384C25.33 1.19258 25.1642 1.41808 25.0822 1.67896C24.8504 2.25815 24.6364 2.83281 24.36 3.40295C23.593 5.17431 22.5975 6.83439 21.3997 8.3396C21.1175 8.66599 20.7971 8.95621 20.4456 9.20385C20.3883 9.25407 20.3204 9.29039 20.2472 9.31008C20.174 9.32976 20.0974 9.33229 20.0231 9.31747C19.9488 9.30264 19.8787 9.27086 19.8183 9.22452C19.7579 9.17819 19.7087 9.11851 19.6743 9.05C19.4866 8.7892 19.3628 8.48672 19.3132 8.16765C19.2597 7.1224 19.2597 6.07715 19.2597 5.0319C19.2597 3.98666 19.3177 2.85543 19.2954 1.76946C19.2954 0.828285 18.9075 0.411995 18.0114 0.226474C16.342 -0.0463201 14.6432 -0.0798298 12.9647 0.126927C12.632 0.160496 12.3043 0.233388 11.9883 0.344122C11.7446 0.419064 11.5208 0.549247 11.3339 0.724835C11.147 0.900424 11.0018 1.11683 10.9094 1.3577C12.1488 1.47082 12.7774 2.18123 12.8487 3.3215C12.929 4.64729 12.929 5.98213 12.9067 7.31245C12.8834 7.79993 12.7857 8.28078 12.6169 8.73779C12.5953 8.876 12.5351 9.00503 12.4435 9.10965C12.3519 9.21426 12.2328 9.29009 12.1001 9.32815C11.9674 9.36622 11.8268 9.36495 11.6948 9.32448C11.5628 9.28401 11.4449 9.20604 11.3552 9.09978C11.0187 8.81672 10.7191 8.49132 10.4636 8.13145C9.09205 6.26055 7.96374 4.21809 7.10651 2.05453C6.99278 1.67522 6.75275 1.34779 6.42746 1.12824C6.10217 0.908691 5.71183 0.810659 5.3232 0.850909C3.90994 0.905207 2.48776 0.878058 1.07003 0.905207C0.883001 0.910984 0.69736 0.939854 0.517207 0.99118C0.424254 1.00577 0.335793 1.04163 0.258525 1.09607C0.181258 1.1505 0.117213 1.22207 0.0712435 1.30536C0.0252741 1.38864 -0.00141349 1.48145 -0.00679665 1.57676C-0.0121798 1.67206 0.0038827 1.76736 0.0401736 1.85543C0.0848963 2.01116 0.14308 2.16258 0.214045 2.30792C0.78916 3.52059 1.33753 4.74684 1.94831 5.92783C3.38149 8.898 5.13222 11.6992 7.16892 14.2808C8.74721 16.2908 10.8798 17.7779 13.2946 18.5523C14.7106 18.9183 16.1734 19.0633 17.6324 18.9821C18.8674 18.9821 19.224 18.5839 19.3177 17.3351C19.3647 16.6463 19.5151 15.9688 19.7635 15.326C20.1112 14.4572 20.78 14.3215 21.5067 14.9052C21.9117 15.2589 22.2958 15.6367 22.6569 16.0364C23.3747 16.7649 24.0568 17.5342 24.8147 18.2219C25.3654 18.7339 26.0875 19.0138 26.8343 19.0048C28.3323 19.0048 29.8347 18.9686 31.3327 18.9369C31.5924 18.9333 31.8503 18.8937 32.0995 18.8192C32.9421 18.5658 33.2051 17.9731 32.7861 17.1948C32.5153 16.6452 32.1767 16.1328 31.7785 15.6699Z" fill="#2E2E2E"/>
</svg>
